<svg width="77" height="77" viewBox="0 0 77 77" fill="none" xmlns="http://www.w3.org/2000/svg">
<g clip-path="url(#clip0)">
<path d="M73.0259 44.1567C75.001 40.7629 76.3163 36.9409 76.7957 32.8662C76.7974 32.8533 76.7986 32.8404 76.8004 32.8275C76.9308 31.7054 77.0001 30.5646 77.0001 29.4078C77.0001 21.7696 74.0722 14.8029 69.2808 9.56919C69.2045 9.46227 69.1146 9.36476 69.0124 9.28075C65.9 5.97039 62.0321 3.37792 57.6855 1.78471C57.6074 1.74947 57.5263 1.72009 57.4435 1.69894C54.3622 0.600388 51.0466 0 47.5923 0C43.7397 0 40.0581 0.746079 36.6831 2.09901C36.5914 2.12662 36.5033 2.16304 36.4181 2.20769C32.2683 3.91838 28.5931 6.55257 25.6488 9.85235C25.5524 9.93753 25.4666 10.0333 25.3944 10.139C20.9056 15.304 18.1844 22.044 18.1844 29.4078C18.1844 30.5117 18.2479 31.6014 18.3671 32.6741C18.3683 32.6876 18.3701 32.7006 18.3718 32.7135C18.5904 34.6603 18.9998 36.5496 19.5808 38.3631L3.78337 54.1606C3.19591 54.7481 3.19591 55.7004 3.78337 56.2878C4.0771 56.5815 4.46189 56.7284 4.84668 56.7284C5.23147 56.7284 5.61626 56.5815 5.90999 56.2878L20.7599 41.4385C21.1735 42.3567 21.6329 43.2508 22.1351 44.1162C22.181 44.2196 22.2391 44.3165 22.3067 44.4064C26.0347 50.667 32.0198 55.4325 39.1316 57.5732L28.5373 68.1669C27.9504 68.7544 27.9504 69.7067 28.5373 70.2941C28.831 70.5879 29.2164 70.7347 29.6012 70.7347C29.986 70.7347 30.3708 70.5879 30.6645 70.2941L42.573 58.3851C44.205 58.667 45.8816 58.8157 47.5923 58.8157C58.3047 58.8157 67.6964 53.0568 72.8379 44.4733C72.9131 44.3758 72.9766 44.2701 73.0259 44.1567ZM60.0136 44.216L54.663 35.9821L57.5081 27.226L64.2704 25.7074L66.0298 25.3126L73.7179 33.2076C73.2509 36.4339 72.1982 39.4734 70.6708 42.2145L60.0136 44.216ZM40.5222 35.9821L35.1739 44.2119L24.4838 42.1605C22.9523 39.3965 21.9031 36.3299 21.4484 33.0754L29.1465 25.3103L37.6771 27.226L39.5728 33.0613L40.5222 35.9821ZM25.7022 14.6654L27.0587 23.1443L21.197 29.0571C21.2669 23.7353 22.9171 18.7877 25.7022 14.6654ZM43.2668 34.6962L40.6103 26.5205L47.5647 21.4683L54.5191 26.521L51.8625 34.6962H43.2668ZM73.9894 29.1752L68.0971 23.1243L69.1387 14.169C72.1524 18.4182 73.9406 23.5925 73.9894 29.1752ZM66.4816 10.9844L65.1504 22.4276L61.9146 23.1537L56.6762 24.3298L49.1238 18.8429V10.7012L57.286 4.85127C60.7761 6.23416 63.902 8.34081 66.4816 10.9844ZM53.6984 3.72217L47.5288 8.14401L40.6508 3.93601C42.8638 3.33209 45.1907 3.00781 47.5923 3.00781C49.6936 3.00781 51.738 3.25572 53.6984 3.72217ZM37.0009 5.22843L46.0608 10.7717V18.8429L40.7336 22.7131L38.5089 24.3298L29.9883 22.417L28.2377 11.4743C30.6845 8.83545 33.6623 6.6965 37.0009 5.22843ZM26.8096 45.6694L34.9242 47.2274L39.057 54.3909C34.1746 52.7184 29.9331 49.6524 26.8096 45.6694ZM43.1281 55.4284L37.6465 45.9267L42.9901 37.704H52.1945L57.538 45.9267L52.0576 55.4278C50.6054 55.6763 49.1138 55.8073 47.5923 55.8073C46.0707 55.8079 44.5798 55.6769 43.1281 55.4284ZM56.1281 54.3909L60.2586 47.2303L68.3421 45.7117C65.2221 49.6742 60.9935 52.7243 56.1281 54.3909Z" fill="#FF8252"/>
<path d="M20.7122 54.1604L0.440598 74.4326C-0.146866 75.02 -0.146866 75.9723 0.440598 76.5598C0.734329 76.8529 1.11912 76.9998 1.50391 76.9998C1.8887 76.9998 2.27348 76.8529 2.56722 76.5592L22.8394 56.2876C23.4263 55.7001 23.4263 54.7478 22.8394 54.1604C22.2519 53.5735 21.2997 53.5735 20.7122 54.1604Z" fill="#FF8252"/>
<path d="M24.9873 72.3394C24.5919 72.3394 24.2042 72.5003 23.9246 72.78C23.645 73.0596 23.4834 73.4473 23.4834 73.8444C23.4834 74.2398 23.6444 74.6263 23.9246 74.9066C24.2042 75.188 24.5919 75.3483 24.9873 75.3483C25.3833 75.3483 25.771 75.188 26.0506 74.9066C26.3302 74.6269 26.4912 74.2398 26.4912 73.8444C26.4912 73.4473 26.3308 73.0596 26.0506 72.78C25.771 72.5003 25.3833 72.3394 24.9873 72.3394Z" fill="#FF8252"/>
</g>
<defs>
<clipPath id="clip0">
<rect width="77" height="77" fill="white"/>
</clipPath>
</defs>
</svg>
