<svg width="105" height="136" viewBox="0 0 105 136" fill="none" xmlns="http://www.w3.org/2000/svg">
    <circle cx="5.51887" cy="5.51887" r="5.51887" fill="white" fill-opacity="0.1"/>
    <circle cx="5.51887" cy="36.556" r="5.51887" fill="white" fill-opacity="0.1"/>
    <circle cx="5.51887" cy="67.5931" r="5.51887" fill="white" fill-opacity="0.1"/>
    <circle cx="5.51887" cy="98.6302" r="5.51887" fill="white" fill-opacity="0.1"/>
    <circle cx="5.51887" cy="129.667" r="5.51887" fill="white" fill-opacity="0.1"/>
    <circle cx="36.556" cy="5.51887" r="5.51887" fill="white" fill-opacity="0.1"/>
    <circle cx="36.556" cy="36.556" r="5.51887" fill="white" fill-opacity="0.1"/>
    <circle cx="36.556" cy="67.5931" r="5.51887" fill="white" fill-opacity="0.1"/>
    <circle cx="36.556" cy="98.6302" r="5.51887" fill="white" fill-opacity="0.1"/>
    <circle cx="36.556" cy="129.667" r="5.51887" fill="white" fill-opacity="0.1"/>
    <circle cx="67.5941" cy="5.51887" r="5.51887" fill="white" fill-opacity="0.1"/>
    <circle cx="67.5941" cy="36.556" r="5.51887" fill="white" fill-opacity="0.1"/>
    <circle cx="67.5941" cy="67.5931" r="5.51887" fill="white" fill-opacity="0.1"/>
    <circle cx="67.5941" cy="98.6302" r="5.51887" fill="white" fill-opacity="0.1"/>
    <circle cx="67.5941" cy="129.667" r="5.51887" fill="white" fill-opacity="0.1"/>
    <circle cx="98.6321" cy="5.51887" r="5.51887" fill="white" fill-opacity="0.1"/>
    <circle cx="98.6321" cy="36.556" r="5.51887" fill="white" fill-opacity="0.1"/>
    <circle cx="98.6321" cy="67.5931" r="5.51887" fill="white" fill-opacity="0.1"/>
    <circle cx="98.6321" cy="98.6302" r="5.51887" fill="white" fill-opacity="0.1"/>
    <circle cx="98.6321" cy="129.667" r="5.51887" fill="white" fill-opacity="0.1"/>
    </svg>
