<svg width="134" height="105" viewBox="0 0 134 105" fill="none" xmlns="http://www.w3.org/2000/svg">
    <circle cx="127.667" cy="6.03645" r="5.51887" transform="rotate(90 127.667 6.03645)" fill="white" fill-opacity="0.1"/>
    <circle cx="96.6296" cy="6.03645" r="5.51887" transform="rotate(90 96.6296 6.03645)" fill="white" fill-opacity="0.1"/>
    <circle cx="65.5925" cy="6.03645" r="5.51887" transform="rotate(90 65.5925 6.03645)" fill="white" fill-opacity="0.1"/>
    <circle cx="34.5554" cy="6.03645" r="5.51887" transform="rotate(90 34.5554 6.03645)" fill="white" fill-opacity="0.1"/>
    <circle cx="3.51824" cy="6.03645" r="5.51887" transform="rotate(90 3.51824 6.03645)" fill="white" fill-opacity="0.1"/>
    <circle cx="127.667" cy="37.074" r="5.51887" transform="rotate(90 127.667 37.074)" fill="white" fill-opacity="0.1"/>
    <circle cx="96.6296" cy="37.074" r="5.51887" transform="rotate(90 96.6296 37.074)" fill="white" fill-opacity="0.1"/>
    <circle cx="65.5925" cy="37.074" r="5.51887" transform="rotate(90 65.5925 37.074)" fill="white" fill-opacity="0.1"/>
    <circle cx="34.5554" cy="37.074" r="5.51887" transform="rotate(90 34.5554 37.074)" fill="white" fill-opacity="0.1"/>
    <circle cx="3.51824" cy="37.074" r="5.51887" transform="rotate(90 3.51824 37.074)" fill="white" fill-opacity="0.1"/>
    <circle cx="127.667" cy="68.1116" r="5.51887" transform="rotate(90 127.667 68.1116)" fill="white" fill-opacity="0.1"/>
    <circle cx="96.6296" cy="68.1116" r="5.51887" transform="rotate(90 96.6296 68.1116)" fill="white" fill-opacity="0.1"/>
    <circle cx="65.5925" cy="68.1116" r="5.51887" transform="rotate(90 65.5925 68.1116)" fill="white" fill-opacity="0.1"/>
    <circle cx="34.5554" cy="68.1116" r="5.51887" transform="rotate(90 34.5554 68.1116)" fill="white" fill-opacity="0.1"/>
    <circle cx="3.51824" cy="68.1116" r="5.51887" transform="rotate(90 3.51824 68.1116)" fill="white" fill-opacity="0.1"/>
    <circle cx="127.667" cy="99.1492" r="5.51887" transform="rotate(90 127.667 99.1492)" fill="white" fill-opacity="0.1"/>
    <circle cx="96.6296" cy="99.1492" r="5.51887" transform="rotate(90 96.6296 99.1492)" fill="white" fill-opacity="0.1"/>
    <circle cx="65.5925" cy="99.1492" r="5.51887" transform="rotate(90 65.5925 99.1492)" fill="white" fill-opacity="0.1"/>
    <circle cx="34.5554" cy="99.1492" r="5.51887" transform="rotate(90 34.5554 99.1492)" fill="white" fill-opacity="0.1"/>
    <circle cx="3.51824" cy="99.1492" r="5.51887" transform="rotate(90 3.51824 99.1492)" fill="white" fill-opacity="0.1"/>
    </svg>
