<svg width="345" height="423" viewBox="0 0 345 423" fill="none" xmlns="http://www.w3.org/2000/svg">
    <g filter="url(#filter0_d)">
    <rect x="75" y="69" width="195" height="273" rx="25" fill="#FF8252"/>
    </g>
    <rect x="90" y="84" width="165" height="165" rx="16" fill="white" fill-opacity="0.1"/>
    <path d="M124.125 286.08H130.365C133.133 286.08 135.277 286.824 136.797 288.312C138.333 289.784 139.101 291.856 139.101 294.528C139.101 297.2 138.333 299.28 136.797 300.768C135.277 302.256 133.133 303 130.365 303H124.125V286.08ZM130.173 300.48C134.061 300.48 136.005 298.496 136.005 294.528C136.005 290.576 134.061 288.6 130.173 288.6H127.221V300.48H130.173ZM152.251 297.672H144.259C144.355 298.76 144.683 299.568 145.243 300.096C145.803 300.624 146.603 300.888 147.643 300.888C148.939 300.888 150.123 300.472 151.195 299.64L152.059 301.704C151.515 302.152 150.827 302.512 149.995 302.784C149.179 303.056 148.355 303.192 147.523 303.192C145.603 303.192 144.083 302.648 142.963 301.56C141.859 300.472 141.307 298.984 141.307 297.096C141.307 295.896 141.547 294.832 142.027 293.904C142.507 292.976 143.179 292.256 144.043 291.744C144.923 291.232 145.915 290.976 147.019 290.976C148.635 290.976 149.907 291.496 150.835 292.536C151.779 293.576 152.251 295.008 152.251 296.832V297.672ZM147.091 293.088C146.291 293.088 145.643 293.344 145.147 293.856C144.667 294.368 144.371 295.104 144.259 296.064H149.683C149.651 295.088 149.411 294.352 148.963 293.856C148.515 293.344 147.891 293.088 147.091 293.088ZM158.45 291.264H161.546V293.52H158.45V303H155.45V293.52H153.194V291.264H155.45C155.45 289.584 155.882 288.32 156.746 287.472C157.626 286.624 158.986 286.152 160.826 286.056L162.002 285.984L162.194 288.216L161.066 288.264C160.122 288.312 159.45 288.528 159.05 288.912C158.65 289.28 158.45 289.88 158.45 290.712V291.264ZM173.415 297.672H165.423C165.519 298.76 165.847 299.568 166.407 300.096C166.967 300.624 167.767 300.888 168.807 300.888C170.103 300.888 171.287 300.472 172.359 299.64L173.223 301.704C172.679 302.152 171.991 302.512 171.159 302.784C170.343 303.056 169.519 303.192 168.687 303.192C166.767 303.192 165.247 302.648 164.127 301.56C163.023 300.472 162.471 298.984 162.471 297.096C162.471 295.896 162.711 294.832 163.191 293.904C163.671 292.976 164.343 292.256 165.207 291.744C166.087 291.232 167.079 290.976 168.183 290.976C169.799 290.976 171.071 291.496 171.999 292.536C172.943 293.576 173.415 295.008 173.415 296.832V297.672ZM168.255 293.088C167.455 293.088 166.807 293.344 166.311 293.856C165.831 294.368 165.535 295.104 165.423 296.064H170.847C170.815 295.088 170.575 294.352 170.127 293.856C169.679 293.344 169.055 293.088 168.255 293.088ZM182.685 290.976C184.093 290.976 185.141 291.376 185.829 292.176C186.517 292.976 186.861 294.184 186.861 295.8V303H183.861V295.968C183.861 295.056 183.685 294.392 183.333 293.976C182.997 293.56 182.461 293.352 181.725 293.352C180.861 293.352 180.165 293.624 179.637 294.168C179.125 294.712 178.869 295.44 178.869 296.352V303H175.869V291.264H178.797V293.016C179.197 292.36 179.733 291.856 180.405 291.504C181.077 291.152 181.837 290.976 182.685 290.976ZM201.236 286.08V303H198.26V301.104C197.908 301.76 197.396 302.272 196.724 302.64C196.068 303.008 195.316 303.192 194.468 303.192C193.46 303.192 192.556 302.936 191.756 302.424C190.972 301.912 190.356 301.192 189.908 300.264C189.476 299.32 189.26 298.24 189.26 297.024C189.26 295.808 189.476 294.744 189.908 293.832C190.356 292.92 190.972 292.216 191.756 291.72C192.54 291.224 193.444 290.976 194.468 290.976C195.316 290.976 196.068 291.152 196.724 291.504C197.38 291.856 197.884 292.352 198.236 292.992V286.08H201.236ZM195.26 300.864C196.22 300.864 196.956 300.536 197.468 299.88C197.996 299.224 198.26 298.288 198.26 297.072C198.26 295.856 197.996 294.928 197.468 294.288C196.956 293.632 196.228 293.304 195.284 293.304C194.324 293.304 193.58 293.624 193.052 294.264C192.524 294.904 192.26 295.824 192.26 297.024C192.26 298.24 192.524 299.184 193.052 299.856C193.58 300.528 194.316 300.864 195.26 300.864ZM214.618 297.672H206.626C206.722 298.76 207.05 299.568 207.61 300.096C208.17 300.624 208.97 300.888 210.01 300.888C211.306 300.888 212.49 300.472 213.562 299.64L214.426 301.704C213.882 302.152 213.194 302.512 212.362 302.784C211.546 303.056 210.722 303.192 209.89 303.192C207.97 303.192 206.45 302.648 205.33 301.56C204.226 300.472 203.674 298.984 203.674 297.096C203.674 295.896 203.914 294.832 204.394 293.904C204.874 292.976 205.546 292.256 206.41 291.744C207.29 291.232 208.282 290.976 209.386 290.976C211.002 290.976 212.274 291.496 213.202 292.536C214.146 293.576 214.618 295.008 214.618 296.832V297.672ZM209.458 293.088C208.658 293.088 208.01 293.344 207.514 293.856C207.034 294.368 206.738 295.104 206.626 296.064H212.05C212.018 295.088 211.778 294.352 211.33 293.856C210.882 293.344 210.258 293.088 209.458 293.088ZM224.8 293.472L223.048 293.64C221.064 293.848 220.072 294.856 220.072 296.664V303H217.072V291.264H219.928V293.328C220.536 291.92 221.792 291.152 223.696 291.024L224.608 290.952L224.8 293.472Z" fill="white"/>
    <circle cx="173" cy="171" r="12" fill="url(#paint0_linear)" fill-opacity="0.4"/>
    <path fill-rule="evenodd" clip-rule="evenodd" d="M194.5 162C194.5 160.067 196.067 158.5 198 158.5H237C238.933 158.5 240.5 160.067 240.5 162C240.5 163.933 238.933 165.5 237 165.5H198C196.067 165.5 194.5 163.933 194.5 162Z" fill="url(#paint1_linear)" fill-opacity="0.4"/>
    <path fill-rule="evenodd" clip-rule="evenodd" d="M105.5 162C105.5 160.067 107.067 158.5 109 158.5H148C149.933 158.5 151.5 160.067 151.5 162C151.5 163.933 149.933 165.5 148 165.5H109C107.067 165.5 105.5 163.933 105.5 162Z" fill="url(#paint2_linear)" fill-opacity="0.4"/>
    <defs>
    <filter id="filter0_d" x="0" y="0" width="345" height="423" filterUnits="userSpaceOnUse" color-interpolation-filters="sRGB">
    <feFlood flood-opacity="0" result="BackgroundImageFix"/>
    <feColorMatrix in="SourceAlpha" type="matrix" values="0 0 0 0 0 0 0 0 0 0 0 0 0 0 0 0 0 0 127 0"/>
    <feOffset dy="6"/>
    <feGaussianBlur stdDeviation="37.5"/>
    <feColorMatrix type="matrix" values="0 0 0 0 0.391667 0 0 0 0 0.342708 0 0 0 0 0.342708 0 0 0 0.05 0"/>
    <feBlend mode="normal" in2="BackgroundImageFix" result="effect1_dropShadow"/>
    <feBlend mode="normal" in="SourceGraphic" in2="effect1_dropShadow" result="shape"/>
    </filter>
    <linearGradient id="paint0_linear" x1="185" y1="154.5" x2="161" y2="186.5" gradientUnits="userSpaceOnUse">
    <stop stop-color="white"/>
    <stop offset="1" stop-color="white" stop-opacity="0"/>
    </linearGradient>
    <linearGradient id="paint1_linear" x1="232.858" y1="161.59" x2="224.681" y2="178.579" gradientUnits="userSpaceOnUse">
    <stop stop-color="white"/>
    <stop offset="1" stop-color="white" stop-opacity="0"/>
    </linearGradient>
    <linearGradient id="paint2_linear" x1="143.858" y1="161.59" x2="135.681" y2="178.579" gradientUnits="userSpaceOnUse">
    <stop stop-color="white"/>
    <stop offset="1" stop-color="white" stop-opacity="0"/>
    </linearGradient>
    </defs>
    </svg>
