<svg  width="100%" height="400px" viewBox="0 0 345 423" fill="none" xmlns="http://www.w3.org/2000/svg">
<g filter="url(#filter0_d)">
<rect x="75" y="69" width="195" height="273" rx="25" fill="white"/>
</g>
<rect x="90" y="84" width="165" height="165" rx="16" fill="#FF8252" fill-opacity="0.1"/>
<path d="M142.599 303.216C141.303 303.216 140.087 303.04 138.951 302.688C137.815 302.336 136.855 301.84 136.071 301.2L137.103 298.944C137.919 299.568 138.775 300.024 139.671 300.312C140.583 300.6 141.567 300.744 142.623 300.744C143.791 300.744 144.687 300.544 145.311 300.144C145.951 299.728 146.271 299.152 146.271 298.416C146.271 297.776 145.975 297.288 145.383 296.952C144.807 296.616 143.839 296.296 142.479 295.992C141.071 295.688 139.927 295.336 139.047 294.936C138.167 294.536 137.503 294.024 137.055 293.4C136.607 292.776 136.383 291.984 136.383 291.024C136.383 290.032 136.655 289.144 137.199 288.36C137.743 287.576 138.511 286.968 139.503 286.536C140.495 286.088 141.639 285.864 142.935 285.864C144.119 285.864 145.247 286.048 146.319 286.416C147.391 286.768 148.271 287.256 148.959 287.88L147.927 290.136C146.423 288.936 144.759 288.336 142.935 288.336C141.847 288.336 140.983 288.56 140.343 289.008C139.719 289.44 139.407 290.048 139.407 290.832C139.407 291.488 139.687 291.992 140.247 292.344C140.807 292.696 141.759 293.024 143.103 293.328C144.527 293.648 145.679 294.008 146.559 294.408C147.455 294.792 148.135 295.288 148.599 295.896C149.079 296.504 149.319 297.272 149.319 298.2C149.319 299.208 149.047 300.096 148.503 300.864C147.975 301.616 147.199 302.2 146.175 302.616C145.167 303.016 143.975 303.216 142.599 303.216ZM157.74 300.936C158.092 300.936 158.46 300.912 158.844 300.864L158.7 303.096C158.22 303.144 157.78 303.168 157.38 303.168C155.732 303.168 154.516 302.792 153.732 302.04C152.948 301.272 152.556 300.136 152.556 298.632V293.52H150.3V291.264H152.556V287.76H155.556V291.264H158.652V293.52H155.556V298.584C155.556 300.152 156.284 300.936 157.74 300.936ZM168.327 293.472L166.575 293.64C164.591 293.848 163.599 294.856 163.599 296.664V303H160.599V291.264H163.455V293.328C164.063 291.92 165.319 291.152 167.223 291.024L168.135 290.952L168.327 293.472ZM169.787 303V291.264H172.787V303H169.787ZM169.619 285.816H172.931V288.768H169.619V285.816ZM187.64 303H183.92L178.88 297.648V303H175.88V286.08H178.88V296.4L183.608 291.288H187.256L181.976 296.904L187.64 303ZM198.879 297.672H190.887C190.983 298.76 191.311 299.568 191.871 300.096C192.431 300.624 193.231 300.888 194.271 300.888C195.567 300.888 196.751 300.472 197.823 299.64L198.687 301.704C198.143 302.152 197.455 302.512 196.623 302.784C195.807 303.056 194.983 303.192 194.151 303.192C192.231 303.192 190.711 302.648 189.591 301.56C188.487 300.472 187.935 298.984 187.935 297.096C187.935 295.896 188.175 294.832 188.655 293.904C189.135 292.976 189.807 292.256 190.671 291.744C191.551 291.232 192.543 290.976 193.647 290.976C195.263 290.976 196.535 291.496 197.463 292.536C198.407 293.576 198.879 295.008 198.879 296.832V297.672ZM193.719 293.088C192.919 293.088 192.271 293.344 191.775 293.856C191.295 294.368 190.999 295.104 190.887 296.064H196.311C196.279 295.088 196.039 294.352 195.591 293.856C195.143 293.344 194.519 293.088 193.719 293.088ZM209.061 293.472L207.309 293.64C205.325 293.848 204.333 294.856 204.333 296.664V303H201.333V291.264H204.189V293.328C204.797 291.92 206.053 291.152 207.957 291.024L208.869 290.952L209.061 293.472Z" fill="#252729"/>
<circle cx="173" cy="188.518" r="12" fill="url(#paint0_linear)" fill-opacity="0.4"/>
<path fill-rule="evenodd" clip-rule="evenodd" d="M221.988 139.875C221.488 138.008 219.568 136.9 217.701 137.4L209.505 139.596C207.638 140.097 206.53 142.016 207.03 143.883C207.531 145.75 209.45 146.858 211.317 146.358L211.757 146.24L195.203 174.912C194.237 176.586 194.81 178.726 196.484 179.693C198.158 180.659 200.299 180.086 201.265 178.412L217.535 150.231C218.168 151.885 219.961 152.826 221.709 152.358C223.576 151.858 224.684 149.938 224.184 148.071L221.988 139.875Z" fill="url(#paint1_linear)" fill-opacity="0.4"/>
<path fill-rule="evenodd" clip-rule="evenodd" d="M127.883 137.4C126.016 136.9 124.097 138.008 123.597 139.875L121.4 148.071C120.9 149.939 122.008 151.858 123.875 152.358C125.742 152.858 127.662 151.75 128.162 149.883L128.28 149.443L144.833 178.115C145.8 179.789 147.94 180.362 149.614 179.396C151.288 178.429 151.862 176.289 150.895 174.615L134.625 146.434C136.374 146.714 138.086 145.631 138.554 143.883C139.054 142.016 137.946 140.097 136.079 139.597L127.883 137.4Z" fill="url(#paint2_linear)" fill-opacity="0.4"/>
<defs>
<filter id="filter0_d" x="0" y="0" width="345" height="423" filterUnits="userSpaceOnUse" color-interpolation-filters="sRGB">
<feFlood flood-opacity="0" result="BackgroundImageFix"/>
<feColorMatrix in="SourceAlpha" type="matrix" values="0 0 0 0 0 0 0 0 0 0 0 0 0 0 0 0 0 0 127 0"/>
<feOffset dy="6"/>
<feGaussianBlur stdDeviation="37.5"/>
<feColorMatrix type="matrix" values="0 0 0 0 0.391667 0 0 0 0 0.342708 0 0 0 0 0.342708 0 0 0 0.05 0"/>
<feBlend mode="normal" in2="BackgroundImageFix" result="effect1_dropShadow"/>
<feBlend mode="normal" in="SourceGraphic" in2="effect1_dropShadow" result="shape"/>
</filter>
<linearGradient id="paint0_linear" x1="185" y1="172.018" x2="161" y2="204.018" gradientUnits="userSpaceOnUse">
<stop stop-color="#FF8252"/>
<stop offset="1" stop-color="#FF8252" stop-opacity="0"/>
</linearGradient>
<linearGradient id="paint1_linear" x1="236.736" y1="124.345" x2="218.181" y2="114.145" gradientUnits="userSpaceOnUse">
<stop stop-color="#FF8252"/>
<stop offset="1" stop-color="#FF8252" stop-opacity="0"/>
</linearGradient>
<linearGradient id="paint2_linear" x1="121.808" y1="116.863" x2="103.696" y2="127.832" gradientUnits="userSpaceOnUse">
<stop stop-color="#FF8252"/>
<stop offset="1" stop-color="#FF8252" stop-opacity="0"/>
</linearGradient>
</defs>
</svg>
