<svg  width="100%" height="400px" viewBox="0 0 345 423" fill="none" xmlns="http://www.w3.org/2000/svg">
<g filter="url(#filter0_d)">
<rect x="75" y="69" width="195" height="273" rx="25" fill="white"/>
</g>
<rect x="90" y="84" width="165" height="165" rx="16" fill="#FF8252" fill-opacity="0.1"/>
<path d="M133.123 286.08H135.547V303H132.811V291.816L128.347 300.264H126.283L121.795 291.936L121.819 303H119.083V286.08H121.531L127.339 297.144L133.123 286.08ZM138.951 303V291.264H141.951V303H138.951ZM138.783 285.816H142.095V288.768H138.783V285.816ZM156.372 286.08V303H153.396V301.104C153.044 301.76 152.532 302.272 151.86 302.64C151.204 303.008 150.452 303.192 149.604 303.192C148.596 303.192 147.692 302.936 146.892 302.424C146.108 301.912 145.492 301.192 145.044 300.264C144.612 299.32 144.396 298.24 144.396 297.024C144.396 295.808 144.612 294.744 145.044 293.832C145.492 292.92 146.108 292.216 146.892 291.72C147.676 291.224 148.58 290.976 149.604 290.976C150.452 290.976 151.204 291.152 151.86 291.504C152.516 291.856 153.02 292.352 153.372 292.992V286.08H156.372ZM150.396 300.864C151.356 300.864 152.092 300.536 152.604 299.88C153.132 299.224 153.396 298.288 153.396 297.072C153.396 295.856 153.132 294.928 152.604 294.288C152.092 293.632 151.364 293.304 150.42 293.304C149.46 293.304 148.716 293.624 148.188 294.264C147.66 294.904 147.396 295.824 147.396 297.024C147.396 298.24 147.66 299.184 148.188 299.856C148.716 300.528 149.452 300.864 150.396 300.864ZM167.858 285.792H171.218V288.792H167.858V285.792ZM163.274 291.264H171.026V303H168.026V293.52H163.274V303H160.274V293.52H158.018V291.264H160.274C160.274 289.568 160.722 288.296 161.618 287.448C162.514 286.584 163.866 286.112 165.674 286.032L166.706 285.984L166.85 288.216L165.722 288.264C164.826 288.312 164.194 288.536 163.826 288.936C163.458 289.32 163.274 289.904 163.274 290.688V291.264ZM184.45 297.672H176.458C176.554 298.76 176.882 299.568 177.442 300.096C178.002 300.624 178.802 300.888 179.842 300.888C181.138 300.888 182.322 300.472 183.394 299.64L184.258 301.704C183.714 302.152 183.026 302.512 182.194 302.784C181.378 303.056 180.554 303.192 179.722 303.192C177.802 303.192 176.282 302.648 175.162 301.56C174.058 300.472 173.506 298.984 173.506 297.096C173.506 295.896 173.746 294.832 174.226 293.904C174.706 292.976 175.378 292.256 176.242 291.744C177.122 291.232 178.114 290.976 179.218 290.976C180.834 290.976 182.106 291.496 183.034 292.536C183.978 293.576 184.45 295.008 184.45 296.832V297.672ZM179.29 293.088C178.49 293.088 177.842 293.344 177.346 293.856C176.866 294.368 176.57 295.104 176.458 296.064H181.882C181.85 295.088 181.61 294.352 181.162 293.856C180.714 293.344 180.09 293.088 179.29 293.088ZM186.904 303V286.08H189.904V303H186.904ZM204.326 286.08V303H201.35V301.104C200.998 301.76 200.486 302.272 199.814 302.64C199.158 303.008 198.406 303.192 197.558 303.192C196.55 303.192 195.646 302.936 194.846 302.424C194.062 301.912 193.446 301.192 192.998 300.264C192.566 299.32 192.35 298.24 192.35 297.024C192.35 295.808 192.566 294.744 192.998 293.832C193.446 292.92 194.062 292.216 194.846 291.72C195.63 291.224 196.534 290.976 197.558 290.976C198.406 290.976 199.158 291.152 199.814 291.504C200.47 291.856 200.974 292.352 201.326 292.992V286.08H204.326ZM198.35 300.864C199.31 300.864 200.046 300.536 200.558 299.88C201.086 299.224 201.35 298.288 201.35 297.072C201.35 295.856 201.086 294.928 200.558 294.288C200.046 293.632 199.318 293.304 198.374 293.304C197.414 293.304 196.67 293.624 196.142 294.264C195.614 294.904 195.35 295.824 195.35 297.024C195.35 298.24 195.614 299.184 196.142 299.856C196.67 300.528 197.406 300.864 198.35 300.864ZM217.708 297.672H209.716C209.812 298.76 210.14 299.568 210.7 300.096C211.26 300.624 212.06 300.888 213.1 300.888C214.396 300.888 215.58 300.472 216.652 299.64L217.516 301.704C216.972 302.152 216.284 302.512 215.452 302.784C214.636 303.056 213.812 303.192 212.98 303.192C211.06 303.192 209.54 302.648 208.42 301.56C207.316 300.472 206.764 298.984 206.764 297.096C206.764 295.896 207.004 294.832 207.484 293.904C207.964 292.976 208.636 292.256 209.5 291.744C210.38 291.232 211.372 290.976 212.476 290.976C214.092 290.976 215.364 291.496 216.292 292.536C217.236 293.576 217.708 295.008 217.708 296.832V297.672ZM212.548 293.088C211.748 293.088 211.1 293.344 210.604 293.856C210.124 294.368 209.828 295.104 209.716 296.064H215.14C215.108 295.088 214.868 294.352 214.42 293.856C213.972 293.344 213.348 293.088 212.548 293.088ZM227.89 293.472L226.138 293.64C224.154 293.848 223.162 294.856 223.162 296.664V303H220.162V291.264H223.018V293.328C223.626 291.92 224.882 291.152 226.786 291.024L227.698 290.952L227.89 293.472Z" fill="#252729"/>
<circle cx="172.257" cy="173.834" r="12" fill="url(#paint0_linear)" fill-opacity="0.4"/>
<path fill-rule="evenodd" clip-rule="evenodd" d="M109.5 149.576C107.567 149.576 106 151.143 106 153.076V161.561C106 163.494 107.567 165.061 109.5 165.061C111.433 165.061 113 163.494 113 161.561V160.356L142.895 177.616C144.569 178.582 146.709 178.008 147.676 176.334C148.642 174.66 148.069 172.52 146.395 171.553L119.689 156.135C120.76 155.536 121.485 154.391 121.485 153.076C121.485 151.143 119.918 149.576 117.985 149.576H109.5Z" fill="url(#paint1_linear)" fill-opacity="0.4"/>
<path fill-rule="evenodd" clip-rule="evenodd" d="M238.834 154.603C239.335 152.736 238.227 150.817 236.36 150.316L228.163 148.12C226.296 147.62 224.377 148.728 223.877 150.595C223.376 152.462 224.485 154.381 226.352 154.882L226.792 155L198.12 171.554C196.446 172.52 195.872 174.661 196.839 176.335C197.805 178.009 199.946 178.582 201.62 177.616L229.8 161.346C229.521 163.094 230.604 164.806 232.352 165.274C234.219 165.774 236.138 164.666 236.638 162.799L238.834 154.603Z" fill="url(#paint2_linear)" fill-opacity="0.4"/>
<defs>
<filter id="filter0_d" x="0" y="0" width="345" height="423" filterUnits="userSpaceOnUse" color-interpolation-filters="sRGB">
<feFlood flood-opacity="0" result="BackgroundImageFix"/>
<feColorMatrix in="SourceAlpha" type="matrix" values="0 0 0 0 0 0 0 0 0 0 0 0 0 0 0 0 0 0 127 0"/>
<feOffset dy="6"/>
<feGaussianBlur stdDeviation="37.5"/>
<feColorMatrix type="matrix" values="0 0 0 0 0.391667 0 0 0 0 0.342708 0 0 0 0 0.342708 0 0 0 0.05 0"/>
<feBlend mode="normal" in2="BackgroundImageFix" result="effect1_dropShadow"/>
<feBlend mode="normal" in="SourceGraphic" in2="effect1_dropShadow" result="shape"/>
</filter>
<linearGradient id="paint0_linear" x1="184.257" y1="157.334" x2="160.257" y2="189.334" gradientUnits="userSpaceOnUse">
<stop stop-color="#FF8252"/>
<stop offset="1" stop-color="#FF8252" stop-opacity="0"/>
</linearGradient>
<linearGradient id="paint1_linear" x1="143.67" y1="137.88" x2="96.9808" y2="141.557" gradientUnits="userSpaceOnUse">
<stop stop-color="#FF8252"/>
<stop offset="1" stop-color="#FF8252" stop-opacity="0"/>
</linearGradient>
<linearGradient id="paint2_linear" x1="234.432" y1="135.657" x2="187.232" y2="139.216" gradientUnits="userSpaceOnUse">
<stop stop-color="#FF8252"/>
<stop offset="1" stop-color="#FF8252" stop-opacity="0"/>
</linearGradient>
</defs>
</svg>
