<svg width="100%" height="400px" viewBox="0 0 345 423" fill="none" xmlns="http://www.w3.org/2000/svg">
<g filter="url(#filter0_d)">
<rect x="75" y="69" width="195" height="273" rx="25" fill="white"/>
</g>
<rect x="90" y="84" width="165" height="165" rx="16" fill="#FF8252" fill-opacity="0.1"/>
<path d="M150.747 303H146.979L139.131 295.128V303H136.035V286.08H139.131V293.64L146.667 286.08H150.363L142.179 294.216L150.747 303ZM161.794 297.672H153.802C153.898 298.76 154.226 299.568 154.786 300.096C155.346 300.624 156.146 300.888 157.186 300.888C158.482 300.888 159.666 300.472 160.738 299.64L161.602 301.704C161.058 302.152 160.37 302.512 159.538 302.784C158.722 303.056 157.898 303.192 157.066 303.192C155.146 303.192 153.626 302.648 152.506 301.56C151.402 300.472 150.85 298.984 150.85 297.096C150.85 295.896 151.09 294.832 151.57 293.904C152.05 292.976 152.722 292.256 153.586 291.744C154.466 291.232 155.458 290.976 156.562 290.976C158.178 290.976 159.45 291.496 160.378 292.536C161.322 293.576 161.794 295.008 161.794 296.832V297.672ZM156.634 293.088C155.834 293.088 155.186 293.344 154.69 293.856C154.21 294.368 153.914 295.104 153.802 296.064H159.226C159.194 295.088 158.954 294.352 158.506 293.856C158.058 293.344 157.434 293.088 156.634 293.088ZM174.544 297.672H166.552C166.648 298.76 166.976 299.568 167.536 300.096C168.096 300.624 168.896 300.888 169.936 300.888C171.232 300.888 172.416 300.472 173.488 299.64L174.352 301.704C173.808 302.152 173.12 302.512 172.288 302.784C171.472 303.056 170.648 303.192 169.816 303.192C167.896 303.192 166.376 302.648 165.256 301.56C164.152 300.472 163.6 298.984 163.6 297.096C163.6 295.896 163.84 294.832 164.32 293.904C164.8 292.976 165.472 292.256 166.336 291.744C167.216 291.232 168.208 290.976 169.312 290.976C170.928 290.976 172.2 291.496 173.128 292.536C174.072 293.576 174.544 295.008 174.544 296.832V297.672ZM169.384 293.088C168.584 293.088 167.936 293.344 167.44 293.856C166.96 294.368 166.664 295.104 166.552 296.064H171.976C171.944 295.088 171.704 294.352 171.256 293.856C170.808 293.344 170.184 293.088 169.384 293.088ZM183.742 290.976C184.75 290.976 185.646 291.232 186.43 291.744C187.23 292.256 187.846 292.984 188.278 293.928C188.726 294.856 188.95 295.928 188.95 297.144C188.95 298.36 188.726 299.424 188.278 300.336C187.846 301.248 187.238 301.952 186.454 302.448C185.67 302.944 184.766 303.192 183.742 303.192C182.91 303.192 182.166 303.016 181.51 302.664C180.854 302.312 180.35 301.824 179.998 301.2V307.32H176.998V291.264H179.95V293.04C180.302 292.384 180.806 291.88 181.462 291.528C182.134 291.16 182.894 290.976 183.742 290.976ZM182.95 300.864C183.894 300.864 184.63 300.544 185.158 299.904C185.686 299.248 185.95 298.328 185.95 297.144C185.95 295.928 185.686 294.984 185.158 294.312C184.63 293.64 183.894 293.304 182.95 293.304C181.99 293.304 181.246 293.632 180.718 294.288C180.206 294.944 179.95 295.88 179.95 297.096C179.95 298.296 180.206 299.224 180.718 299.88C181.246 300.536 181.99 300.864 182.95 300.864ZM201.708 297.672H193.716C193.812 298.76 194.14 299.568 194.7 300.096C195.26 300.624 196.06 300.888 197.1 300.888C198.396 300.888 199.58 300.472 200.652 299.64L201.516 301.704C200.972 302.152 200.284 302.512 199.452 302.784C198.636 303.056 197.812 303.192 196.98 303.192C195.06 303.192 193.54 302.648 192.42 301.56C191.316 300.472 190.764 298.984 190.764 297.096C190.764 295.896 191.004 294.832 191.484 293.904C191.964 292.976 192.636 292.256 193.5 291.744C194.38 291.232 195.372 290.976 196.476 290.976C198.092 290.976 199.364 291.496 200.292 292.536C201.236 293.576 201.708 295.008 201.708 296.832V297.672ZM196.548 293.088C195.748 293.088 195.1 293.344 194.604 293.856C194.124 294.368 193.828 295.104 193.716 296.064H199.14C199.108 295.088 198.868 294.352 198.42 293.856C197.972 293.344 197.348 293.088 196.548 293.088ZM211.89 293.472L210.138 293.64C208.154 293.848 207.162 294.856 207.162 296.664V303H204.162V291.264H207.018V293.328C207.626 291.92 208.882 291.152 210.786 291.024L211.698 290.952L211.89 293.472Z" fill="#252729"/>
<circle cx="172" cy="160" r="12" fill="url(#paint0_linear)" fill-opacity="0.4"/>
<path fill-rule="evenodd" clip-rule="evenodd" d="M113.525 164.525C114.892 163.158 117.108 163.158 118.475 164.525L136.95 183H208.05L226.525 164.525C227.892 163.158 230.108 163.158 231.475 164.525C232.842 165.892 232.842 168.108 231.475 169.475L212.561 188.389C211.529 189.421 210.13 190 208.672 190H136.328C134.87 190 133.471 189.421 132.439 188.389L113.525 169.475C112.158 168.108 112.158 165.892 113.525 164.525Z" fill="url(#paint1_linear)" fill-opacity="0.4"/>
<defs>
<filter id="filter0_d" x="0" y="0" width="345" height="423" filterUnits="userSpaceOnUse" color-interpolation-filters="sRGB">
<feFlood flood-opacity="0" result="BackgroundImageFix"/>
<feColorMatrix in="SourceAlpha" type="matrix" values="0 0 0 0 0 0 0 0 0 0 0 0 0 0 0 0 0 0 127 0"/>
<feOffset dy="6"/>
<feGaussianBlur stdDeviation="37.5"/>
<feColorMatrix type="matrix" values="0 0 0 0 0.391667 0 0 0 0 0.342708 0 0 0 0 0.342708 0 0 0 0.05 0"/>
<feBlend mode="normal" in2="BackgroundImageFix" result="effect1_dropShadow"/>
<feBlend mode="normal" in="SourceGraphic" in2="effect1_dropShadow" result="shape"/>
</filter>
<linearGradient id="paint0_linear" x1="184" y1="143.5" x2="160" y2="175.5" gradientUnits="userSpaceOnUse">
<stop stop-color="#FF8252"/>
<stop offset="1" stop-color="#FF8252" stop-opacity="0"/>
</linearGradient>
<linearGradient id="paint1_linear" x1="217" y1="159" x2="102" y2="194.5" gradientUnits="userSpaceOnUse">
<stop stop-color="#FF8252"/>
<stop offset="1" stop-color="#FF8252" stop-opacity="0"/>
</linearGradient>
</defs>
</svg>
